<svg fill="#000000" xmlns="http://www.w3.org/2000/svg"  viewBox="0 0 100 100" width="16" height="16"><path d="M 50 9.0078125 C 48.473665 9.0078039 46.94618 9.5856685 45.787109 10.744141 L 10.744141 45.789062 C 8.4269006 48.106302 8.4271968 51.89475 10.744141 54.212891 L 45.789062 89.255859 C 48.106302 91.573099 51.89475 91.572803 54.212891 89.255859 L 89.255859 54.212891 C 91.572803 51.89475 91.574198 48.106203 89.255859 45.789062 L 54.210938 10.744141 C 53.052318 9.5855204 51.526335 9.0078211 50 9.0078125 z M 50 10.994141 C 51.010415 10.994132 52.020495 11.381823 52.796875 12.158203 L 64.613281 23.972656 L 49.292969 39.292969 L 39.292969 49.292969 A 1.0001 1.0001 0 0 0 39.292969 50.707031 L 49.291016 60.707031 L 34.679688 75.318359 L 12.160156 52.798828 C 10.6071 51.244969 10.60549 48.755885 12.158203 47.203125 L 47.201172 12.160156 C 47.978101 11.383628 48.989585 10.994149 50 10.994141 z M 65.320312 24.679688 L 87.841797 47.203125 C 89.395459 48.755984 89.394853 51.244969 87.841797 52.798828 L 52.798828 87.841797 C 51.244969 89.394853 48.755885 89.394557 47.203125 87.841797 L 35.386719 76.027344 L 50 61.414062 L 56.146484 67.560547 A 0.50005 0.50005 0 1 0 56.853516 66.853516 L 50.707031 60.707031 L 60.705078 50.707031 A 1.0001 1.0001 0 0 0 60.705078 49.292969 L 50.707031 39.292969 L 65.320312 24.679688 z M 50 41.414062 L 58.583984 50 L 49.998047 58.585938 L 41.414062 50 L 50 41.414062 z M 58.494141 68.701172 A 0.50005 0.50005 0 0 0 58.146484 69.560547 L 60.146484 71.560547 A 0.50005 0.50005 0 1 0 60.853516 70.853516 L 58.853516 68.853516 A 0.50005 0.50005 0 0 0 58.494141 68.701172 z M 62.494141 72.701172 A 0.50005 0.50005 0 0 0 62.146484 73.560547 L 63.146484 74.560547 A 0.50005 0.50005 0 1 0 63.853516 73.853516 L 62.853516 72.853516 A 0.50005 0.50005 0 0 0 62.494141 72.701172 z"/></svg>